<?xml version="1.0" standalone="no"?>
<!DOCTYPE svg PUBLIC "-//W3C//DTD SVG 20010904//EN"
 "http://www.w3.org/TR/2001/REC-SVG-20010904/DTD/svg10.dtd">
<svg version="1.0" xmlns="http://www.w3.org/2000/svg"
 width="777.000000pt" height="809.000000pt" viewBox="0 0 777.000000 809.000000"
 preserveAspectRatio="xMidYMid meet">

<g transform="translate(0.000000,809.000000) scale(0.100000,-0.100000)"
fill="#000000" stroke="none">
<path d="M3548 6933 c6 -2 18 -2 25 0 6 3 1 5 -13 5 -14 0 -19 -2 -12 -5z"/>
<path d="M3959 6900 c-38 -43 -63 -45 -95 -9 -26 29 -36 23 -19 -12 10 -18 15
-48 13 -77 l-3 -47 -100 -12 c-182 -22 -366 -71 -535 -140 -115 -47 -166 -75
-295 -159 -238 -156 -407 -333 -558 -586 -97 -161 -197 -420 -222 -571 -6 -38
-7 -38 -28 -23 -42 30 -153 96 -162 96 -5 0 12 -13 37 -29 76 -48 90 -101 26
-101 l-33 0 30 -19 c89 -55 119 -146 75 -230 -47 -92 -179 -116 -266 -49 -21
16 -25 17 -15 5 21 -26 85 -57 118 -57 36 0 74 -26 71 -48 -2 -9 3 -16 10 -14
27 5 9 -18 -34 -43 l-47 -27 7 -70 c3 -39 11 -78 17 -87 8 -13 9 -11 5 9 -3
14 -8 52 -12 86 l-6 61 39 6 c21 4 65 22 97 42 32 19 60 35 61 35 2 0 6 -21 9
-47 29 -208 84 -391 172 -568 30 -61 54 -115 54 -120 -1 -10 -152 -105 -168
-105 -8 0 -75 115 -95 164 -4 10 -10 16 -13 13 -7 -6 71 -165 91 -186 12 -12
20 -11 54 3 55 21 77 20 95 -5 16 -24 13 -38 -21 -88 -13 -19 -23 -41 -23 -50
0 -9 9 2 20 24 59 120 219 126 293 12 87 -134 -39 -293 -192 -242 -51 17 -80
41 -105 90 -10 18 -16 23 -16 13 0 -9 17 -37 38 -61 30 -36 48 -48 97 -61 47
-13 67 -15 89 -6 43 16 59 5 79 -49 9 -27 25 -59 35 -71 l17 -21 74 75 c40 42
75 76 77 76 3 0 28 -18 57 -39 65 -48 236 -145 342 -193 530 -239 1192 -183
1702 145 172 111 357 293 483 478 73 107 177 319 219 448 33 101 71 281 71
337 0 18 2 34 4 34 2 0 27 -16 56 -35 51 -34 121 -60 143 -52 6 2 -23 20 -65
41 -42 20 -79 44 -82 52 -7 19 9 18 39 -2 21 -14 26 -14 30 -2 3 8 5 21 3 29
-2 10 14 15 67 19 43 4 81 13 98 24 39 26 33 30 -13 6 -50 -25 -102 -25 -154
0 -120 58 -127 232 -12 296 l38 22 -46 -5 c-36 -5 -47 -2 -52 11 -4 9 1 25 10
35 21 24 21 38 -1 19 -10 -9 -28 -20 -39 -26 -21 -11 -22 -8 -38 81 -17 92
-90 332 -108 354 -7 9 10 17 64 33 40 12 85 25 100 30 22 7 30 5 41 -10 12
-17 13 -15 11 26 -2 34 -15 64 -53 125 -28 44 -51 84 -51 89 0 6 -2 10 -5 10
-3 0 -116 -39 -252 -86 -137 -47 -273 -94 -303 -104 -105 -34 -425 -153 -455
-168 -16 -9 -33 -16 -37 -17 -15 -1 -19 -15 -8 -32 10 -16 10 -15 6 7 -3 14
-3 19 0 12 3 -6 10 -10 15 -7 5 4 5 -3 0 -17 -5 -13 -14 -22 -20 -21 -6 2 -8
-4 -4 -13 4 -10 -6 -26 -26 -44 -17 -16 -31 -34 -31 -39 0 -6 -5 -11 -10 -11
-7 0 -7 -7 1 -22 10 -18 9 -20 -5 -15 -8 3 -18 2 -21 -3 -4 -6 18 -10 54 -10
l61 0 1 -42 c1 -24 3 -58 5 -75 l2 -33 -109 0 -108 0 -7 51 c-4 33 -10 46 -15
37 -7 -10 -9 -10 -9 0 0 17 -120 16 -145 -2 -18 -13 -18 -14 3 -43 l21 -30
-52 -7 c-96 -11 -109 -9 -102 17 4 12 15 39 26 60 22 43 23 51 9 42 -6 -4 -10
5 -10 20 0 14 -4 24 -9 20 -5 -3 -16 4 -24 15 -13 19 -19 9 -85 -129 -40 -82
-72 -151 -72 -153 0 -3 -24 -57 -54 -119 -29 -63 -115 -247 -191 -409 -75
-162 -140 -298 -144 -302 -5 -6 -98 49 -309 182 -29 18 -54 31 -55 29 -2 -2
-25 -42 -52 -89 -49 -87 -312 -512 -347 -563 l-20 -28 -29 33 c-16 18 -29 37
-29 41 0 5 -10 21 -22 35 -11 15 -18 19 -15 10 4 -12 2 -15 -9 -11 -12 4 -10
12 9 47 28 49 183 300 296 481 45 71 98 162 119 202 27 53 41 72 52 67 14 -5
148 -88 268 -166 31 -20 62 -37 67 -37 6 0 31 48 57 107 26 59 118 262 203
452 210 463 228 507 227 558 0 42 0 43 59 72 55 29 84 56 91 90 2 8 10 18 18
22 8 4 -19 7 -60 8 -41 1 -89 3 -106 4 l-32 3 5 -121 c4 -85 1 -134 -8 -166
l-13 -45 -7 85 c-4 47 -7 187 -8 313 l-1 227 -102 2 c-57 2 -128 2 -158 1 -38
-2 -50 1 -40 7 8 5 20 10 27 10 6 0 38 18 71 41 48 33 70 42 120 46 67 6 60
12 75 -62 3 -11 5 45 6 123 l1 144 -52 -7 c-64 -8 -127 -48 -181 -114 -49 -61
-139 -243 -131 -268 4 -14 4 -15 -4 -4 -7 10 -12 2 -17 -30 -4 -24 -16 -75
-26 -114 -17 -65 -18 -66 -13 -20 3 28 12 82 21 120 8 39 17 82 20 98 l5 27
-78 2 c-95 3 -191 -1 -221 -7 -13 -3 -23 -1 -23 4 0 5 26 11 58 13 40 3 84 18
147 48 50 23 111 45 136 48 40 4 48 9 64 38 10 19 46 61 81 94 34 33 59 60 55
60 -18 0 -255 -61 -284 -74 -32 -13 -73 -42 -164 -115 -54 -43 -170 -181 -200
-237 -13 -24 -34 -60 -48 -80 -14 -21 -28 -49 -31 -63 -11 -46 -47 -165 -60
-196 -27 -64 -43 -126 -74 -285 l-32 -165 -121 3 c-67 2 -126 7 -132 13 -5 5
0 9 15 10 22 0 23 1 6 8 -13 5 -1 7 33 7 29 -1 55 4 59 10 8 14 78 35 86 26 3
-3 6 2 6 11 0 10 5 14 15 11 9 -4 15 0 15 7 0 12 2 12 9 0 11 -17 13 -12 41
132 12 60 39 159 60 220 21 62 41 121 44 132 6 19 2 20 -82 18 -48 -1 -78 1
-67 4 11 2 36 9 56 14 64 16 139 89 206 199 53 86 153 194 231 247 28 20 52
38 52 39 0 15 -216 -98 -326 -170 -95 -62 -296 -245 -341 -310 -15 -22 -22
-26 -28 -16 -6 9 -4 11 5 5 9 -5 11 -4 6 4 -9 13 -75 12 -93 -2 -9 -7 -13 -4
-13 8 0 44 -139 -165 -195 -293 -10 -23 -20 -40 -23 -38 -7 8 105 230 154 302
26 38 68 96 94 129 61 77 237 248 315 307 237 179 528 288 853 319 342 32 750
-79 1033 -280 102 -73 259 -209 259 -225 0 -6 -23 -29 -51 -50 l-51 -38 -67
61 c-90 79 -265 196 -374 250 -95 46 -127 50 -53 7 24 -14 81 -60 126 -103
l82 -77 53 3 c29 1 56 -2 60 -8 4 -7 -13 -11 -50 -11 l-56 0 17 -32 c9 -18 36
-65 60 -104 24 -39 44 -76 44 -82 0 -18 -20 -14 -27 6 -10 24 -100 171 -126
204 l-22 28 -169 5 c-145 4 -171 7 -183 22 -8 12 -6 0 5 -32 11 -27 25 -67 31
-87 l13 -38 117 0 c134 0 139 -2 197 -82 21 -29 43 -56 49 -60 6 -5 5 -8 -3
-8 -8 0 -26 -10 -40 -22 -16 -12 -20 -19 -9 -15 10 4 43 13 75 21 31 9 122 38
202 67 80 28 248 87 374 130 127 44 232 81 234 83 2 3 -21 35 -52 72 -31 37
-56 72 -56 76 0 5 -6 8 -12 7 -32 -4 -47 3 -53 22 -6 17 -9 18 -18 6 -7 -8
-45 -38 -85 -67 l-72 -52 -68 59 c-320 283 -697 448 -1084 479 l-88 6 0 51 c0
36 7 63 25 94 14 23 25 43 23 42 -2 0 -19 -18 -39 -39z m-829 -750 c0 -5 -12
-10 -27 -11 -16 0 -47 -2 -70 -5 -47 -5 -56 2 -20 16 30 12 117 12 117 0z
m346 -147 c-3 -16 -11 -71 -16 -123 -6 -52 -19 -138 -30 -190 -17 -88 -31
-198 -46 -362 l-5 -67 -210 -1 c-205 -1 -209 0 -209 20 0 11 6 23 14 26 8 3
12 12 9 19 -3 10 1 13 16 10 12 -2 21 1 21 6 0 6 4 8 9 5 5 -4 31 -2 58 3 49
10 163 20 240 21 42 0 42 0 47 43 3 23 7 62 8 87 l3 45 -155 5 -155 6 156 2
156 2 22 113 c11 61 24 134 27 161 l7 49 -177 -5 c-98 -2 -169 -1 -159 3 11 4
46 37 77 73 l58 65 71 4 c185 8 169 10 163 -20z m412 -48 l2 -75 -187 1 c-104
1 -181 3 -173 6 8 2 26 29 39 59 37 85 34 84 185 84 l132 0 2 -75z m-847 -42
c-11 -21 -20 -33 -21 -26 0 13 33 73 38 68 2 -2 -6 -20 -17 -42z m2367 -260
c42 -92 98 -260 90 -269 -3 -3 -11 16 -17 41 -16 63 -102 246 -112 239 -5 -3
-7 1 -4 8 3 7 -4 19 -15 26 -17 10 -28 10 -55 1 -19 -7 -31 -17 -28 -22 3 -5
0 -8 -7 -5 -8 2 -16 10 -18 18 -3 7 0 10 7 6 6 -4 11 -2 11 4 0 6 4 9 9 6 4
-3 25 4 47 14 21 11 41 20 45 20 3 0 24 -39 47 -87z m-1543 -103 c4 -7 -65
-10 -202 -9 -120 1 -197 4 -183 9 37 12 378 12 385 0z m1185 -5 c0 -2 -9 -3
-19 -2 -11 0 -18 5 -15 9 4 6 34 0 34 -7z m-2287 -2 c-18 -2 -48 -2 -65 0 -18
2 -4 4 32 4 36 0 50 -2 33 -4z m2254 -45 c-3 -8 -6 -5 -6 6 -1 11 2 17 5 13 3
-3 4 -12 1 -19z m-55 -643 c-2 -357 -7 -653 -10 -657 -4 -3 -52 -8 -107 -9
l-100 -3 -3 662 -2 663 112 -3 113 -3 -3 -650z m65 588 c-3 -10 -5 -4 -5 12 0
17 2 24 5 18 2 -7 2 -21 0 -30z m274 -25 c1 -13 2 -27 4 -33 1 -5 3 -74 3
-152 2 -120 4 -143 17 -143 12 0 15 16 15 80 0 47 -4 80 -10 80 -12 0 -13 60
-1 78 13 21 23 -11 38 -123 24 -192 26 -233 13 -310 -7 -42 -16 -78 -21 -81
-4 -2 -11 17 -15 43 -4 27 -13 56 -20 67 -12 17 -13 16 -18 -15 -3 -19 -7 -92
-10 -164 -4 -115 -8 -142 -40 -238 -19 -59 -54 -143 -76 -185 -41 -79 -85
-141 -93 -132 -2 3 -7 285 -10 628 l-6 622 115 0 c111 0 114 -1 115 -22z
m-1499 -20 c8 -22 -11 -121 -24 -129 -7 -5 -79 -9 -160 -9 l-148 0 7 48 c9 73
17 82 71 84 l47 1 -50 7 c-34 5 -1 7 102 8 108 2 152 -1 155 -10z m1705 -50
c-3 -8 -6 -5 -6 6 -1 11 2 17 5 13 3 -3 4 -12 1 -19z m-877 -693 l0 -465 -92
-1 c-51 0 -103 -2 -115 -5 l-23 -4 0 454 c0 250 -3 461 -6 470 -5 14 9 16 115
16 l121 0 0 -465z m-360 -3 c0 -126 -3 -283 -6 -348 l-7 -120 -108 1 -109 0 0
348 0 347 115 0 115 0 0 -228z"/>
<path d="M4238 6933 c6 -2 18 -2 25 0 6 3 1 5 -13 5 -14 0 -19 -2 -12 -5z"/>
<path d="M4378 6903 c7 -3 16 -2 19 1 4 3 -2 6 -13 5 -11 0 -14 -3 -6 -6z"/>
<path d="M3378 6893 c6 -2 18 -2 25 0 6 3 1 5 -13 5 -14 0 -19 -2 -12 -5z"/>
<path d="M3930 6182 c0 -162 3 -293 6 -289 3 3 7 34 8 69 l3 63 124 3 124 3
47 -45 c32 -31 44 -39 41 -26 -4 16 -2 19 13 13 14 -5 16 -3 11 11 -4 10 -3
15 3 11 15 -9 12 10 -10 85 -41 138 -109 278 -129 265 -5 -2 -23 14 -40 36
-44 54 -97 86 -153 92 l-48 5 0 -296z m117 86 c15 -7 46 -24 68 -38 49 -33
100 -51 120 -44 8 4 15 1 15 -5 0 -8 -48 -11 -155 -11 l-155 0 0 55 0 55 40 0
c21 0 52 -5 67 -12z m183 -43 c0 -5 -5 -3 -10 5 -5 8 -10 20 -10 25 0 6 5 3
10 -5 5 -8 10 -19 10 -25z"/>
<path d="M4090 6452 c53 -36 95 -79 132 -136 21 -33 38 -54 38 -48 0 20 35 13
111 -22 103 -47 259 -87 259 -68 0 15 -117 121 -175 159 -93 60 -146 80 -300
112 -80 17 -87 17 -65 3z"/>
<path d="M4140 6383 c13 -18 26 -30 29 -28 3 3 -8 18 -23 33 l-29 27 23 -32z"/>
<path d="M5928 6363 c6 -2 18 -2 25 0 6 3 1 5 -13 5 -14 0 -19 -2 -12 -5z"/>
<path d="M5838 6353 c6 -2 18 -2 25 0 6 3 1 5 -13 5 -14 0 -19 -2 -12 -5z"/>
<path d="M5613 6323 c9 -2 23 -2 30 0 6 3 -1 5 -18 5 -16 0 -22 -2 -12 -5z"/>
<path d="M3566 6255 c-9 -26 -7 -32 5 -12 6 10 9 21 6 23 -2 3 -7 -2 -11 -11z"/>
<path d="M3542 6195 c-17 -37 -14 -45 4 -12 9 16 14 31 11 33 -2 2 -9 -7 -15
-21z"/>
<path d="M4321 5964 c0 -11 3 -14 6 -6 3 7 2 16 -1 19 -3 4 -6 -2 -5 -13z"/>
<path d="M2591 5925 c0 -5 4 -17 9 -25 7 -11 10 -11 10 -2 0 7 5 10 12 6 7 -4
8 -3 4 5 -4 6 -11 9 -16 6 -4 -3 -11 1 -13 7 -3 7 -6 9 -6 3z"/>
<path d="M4565 5820 c-3 -6 1 -7 9 -4 18 7 21 14 7 14 -6 0 -13 -4 -16 -10z"/>
<path d="M2055 5749 c-4 -6 -5 -12 -2 -15 2 -3 7 2 10 11 7 17 1 20 -8 4z"/>
<path d="M5780 5693 c0 -4 5 -15 10 -23 8 -13 10 -13 10 2 0 9 -4 20 -10 23
-5 3 -10 3 -10 -2z"/>
<path d="M5861 5424 c0 -11 3 -14 6 -6 3 7 2 16 -1 19 -3 4 -6 -2 -5 -13z"/>
<path d="M5780 5314 l-25 -15 25 7 c28 7 35 12 29 18 -2 2 -15 -2 -29 -10z"/>
<path d="M5985 5190 c10 -11 20 -20 23 -20 3 0 -3 9 -13 20 -10 11 -20 20 -23
20 -3 0 3 -9 13 -20z"/>
<path d="M1809 5183 c-13 -16 -12 -17 4 -4 16 13 21 21 13 21 -2 0 -10 -8 -17
-17z"/>
<path d="M1903 5112 c-6 -4 -17 -20 -22 -35 -9 -24 -8 -31 14 -53 28 -28 51
-30 83 -8 27 19 29 64 4 87 -19 18 -59 22 -79 9z m67 -27 c11 -13 8 -15 -19
-15 -24 0 -31 -4 -31 -19 0 -12 8 -21 23 -24 20 -3 20 -4 4 -11 -36 -17 -67
34 -44 72 11 17 52 15 67 -3z"/>
<path d="M5826 5104 c-35 -34 -6 -104 43 -104 37 0 64 30 58 67 -4 27 -4 27
-6 -4 -1 -34 -30 -59 -57 -49 -16 6 -19 36 -3 36 5 0 7 5 4 10 -4 6 -15 8 -26
5 -10 -4 -19 -3 -19 2 1 21 20 34 52 36 20 1 34 5 31 10 -8 13 -61 7 -77 -9z"/>
<path d="M6042 5090 c0 -14 2 -19 5 -12 2 6 2 18 0 25 -3 6 -5 1 -5 -13z"/>
<path d="M1761 5064 c0 -11 3 -14 6 -6 3 7 2 16 -1 19 -3 4 -6 -2 -5 -13z"/>
<path d="M6042 5030 c0 -14 2 -19 5 -12 2 6 2 18 0 25 -3 6 -5 1 -5 -13z"/>
<path d="M1770 5001 c0 -6 4 -13 10 -16 6 -3 7 1 4 9 -7 18 -14 21 -14 7z"/>
<path d="M6026 4983 c-6 -14 -5 -15 5 -6 7 7 10 15 7 18 -3 3 -9 -2 -12 -12z"/>
<path d="M5872 4685 c0 -16 2 -22 5 -12 2 9 2 23 0 30 -3 6 -5 -1 -5 -18z"/>
<path d="M5862 4620 c0 -14 2 -19 5 -12 2 6 2 18 0 25 -3 6 -5 1 -5 -13z"/>
<path d="M5852 4570 c0 -14 2 -19 5 -12 2 6 2 18 0 25 -3 6 -5 1 -5 -13z"/>
<path d="M1961 4544 c0 -11 3 -14 6 -6 3 7 2 16 -1 19 -3 4 -6 -2 -5 -13z"/>
<path d="M1971 4504 c0 -11 3 -14 6 -6 3 7 2 16 -1 19 -3 4 -6 -2 -5 -13z"/>
<path d="M1986 4450 c7 -48 27 -107 30 -95 2 6 -5 37 -16 70 -12 36 -17 46
-14 25z"/>
<path d="M2046 4270 c8 -33 36 -92 40 -87 3 2 -7 28 -21 58 -14 30 -22 43 -19
29z"/>
<path d="M5727 4203 c-4 -3 -7 -13 -7 -22 1 -13 3 -13 11 2 11 19 8 33 -4 20z"/>
<path d="M5676 4093 c-6 -14 -5 -15 5 -6 7 7 10 15 7 18 -3 3 -9 -2 -12 -12z"/>
<path d="M5605 3969 c-4 -6 -5 -12 -2 -15 2 -3 7 2 10 11 7 17 1 20 -8 4z"/>
<path d="M2416 3828 c-34 -48 -7 -98 52 -98 27 0 35 6 49 34 15 32 15 37 -1
60 -22 34 -78 36 -100 4z m26 -35 c-5 -25 -4 -26 31 -20 27 4 35 2 31 -8 -7
-16 -47 -25 -66 -14 -8 5 -14 18 -12 31 1 13 3 26 3 31 1 4 5 7 10 7 4 0 6
-12 3 -27z"/>
<path d="M2282 3790 c0 -19 2 -27 5 -17 2 9 2 25 0 35 -3 9 -5 1 -5 -18z"/>
<path d="M5464 3763 c-23 -31 -24 -34 -5 -18 22 19 46 55 38 55 -3 0 -17 -17
-33 -37z"/>
<path d="M5385 3670 c-21 -22 -35 -40 -30 -39 10 1 82 79 73 79 -2 0 -22 -18
-43 -40z"/>
<path d="M5275 3560 c-3 -6 1 -7 9 -4 18 7 21 14 7 14 -6 0 -13 -4 -16 -10z"/>
<path d="M2695 3421 c26 -22 57 -42 69 -44 20 -5 20 -5 2 6 -10 7 -39 27 -63
45 -60 45 -65 40 -8 -7z"/>
<path d="M2866 3301 c20 -20 158 -92 274 -144 72 -32 303 -104 360 -113 25 -3
50 -11 57 -16 18 -14 459 -21 583 -10 122 12 324 56 395 87 17 7 45 16 62 20
18 3 35 11 38 16 4 5 13 9 21 9 27 0 197 81 224 107 8 8 -37 -11 -100 -41
-479 -228 -1073 -255 -1568 -70 -96 36 -274 120 -315 149 -24 17 -47 21 -31 6z"/>
<path d="M1413 2873 c-10 -4 -13 -110 -12 -486 0 -265 4 -565 8 -667 l8 -185
49 -144 c59 -176 76 -197 184 -232 82 -26 163 -29 655 -20 116 2 482 -2 815
-7 957 -17 2558 -19 2725 -4 273 24 343 38 388 81 29 26 87 129 87 153 0 7 11
35 24 61 14 26 30 72 36 102 6 30 17 67 25 82 33 68 48 1224 17 1255 -11 11
-499 13 -2505 15 -1371 1 -2498 -1 -2504 -4z m670 -124 c58 -16 114 -72 133
-133 16 -49 16 -56 0 -104 -16 -47 -63 -103 -97 -114 -10 -3 -6 -16 13 -49 54
-94 118 -217 118 -228 0 -8 -29 -11 -96 -9 l-97 3 -56 125 -56 125 -42 3 -42
3 -3 -128 -3 -128 -90 0 -90 0 -3 323 -2 322 187 0 c104 0 205 -5 226 -11z
m784 -46 l3 -53 -165 0 -165 0 0 -75 0 -75 125 0 125 0 0 -55 0 -55 -125 0
-125 0 0 -80 0 -80 161 -2 162 -3 0 -48 c0 -27 -4 -52 -10 -58 -6 -6 -107 -8
-254 -7 l-244 3 -3 323 -2 322 257 -2 257 -3 3 -52z m273 -203 l0 -259 133 -3
132 -3 0 -60 0 -60 -225 0 -225 0 -3 323 -2 322 95 0 95 0 0 -260z m530 -65
l0 -326 -92 3 -93 3 -3 323 -2 322 95 0 95 0 0 -325z m549 178 c29 -82 64
-175 76 -208 77 -208 103 -284 98 -289 -12 -12 -172 -6 -180 6 -4 7 -17 38
-28 68 l-20 55 -112 3 -111 3 -17 -48 c-36 -101 -25 -93 -116 -93 l-81 0 6 25
c6 25 46 128 141 370 23 61 55 143 71 183 l28 72 95 0 96 0 54 -147z m686 136
c58 -16 112 -74 120 -129 9 -65 -11 -119 -58 -149 l-37 -24 37 -21 c101 -57
113 -184 23 -259 -49 -42 -92 -49 -312 -54 l-208 -5 0 326 0 326 198 0 c113 0
214 -5 237 -11z m455 -249 l0 -259 133 -3 132 -3 0 -60 0 -60 -225 0 -225 0
-3 323 -2 322 95 0 95 0 0 -260z m860 205 l0 -55 -162 -2 -163 -3 -3 -72 -3
-73 126 0 125 0 0 -55 0 -54 -122 -3 -123 -3 -3 -77 -3 -78 163 -2 163 -3 0
-55 0 -55 -255 0 -255 0 -3 323 -2 322 260 0 260 0 0 -55z m-3534 -839 c19
-19 34 -41 34 -50 0 -27 -29 -18 -64 19 -44 46 -91 48 -138 6 -29 -26 -32 -34
-33 -89 0 -74 24 -112 79 -126 30 -8 41 -6 64 10 15 12 31 30 37 42 11 25 55
31 55 7 0 -8 -15 -32 -34 -53 -33 -36 -37 -37 -103 -37 -80 0 -110 17 -142 81
-26 52 -27 94 -1 145 29 57 71 79 149 79 58 0 65 -2 97 -34z m1053 19 c16 -8
40 -28 55 -45 21 -26 26 -42 26 -89 0 -107 -71 -169 -180 -159 -66 7 -105 39
-124 103 -25 82 1 156 66 188 41 21 120 22 157 2z m651 0 c67 -35 93 -152 50
-223 -60 -97 -210 -97 -270 0 -24 39 -27 116 -6 156 16 30 53 66 76 75 31 11
122 6 150 -8z m381 -8 c38 -25 49 -54 24 -63 -10 -4 -25 3 -39 19 -29 31 -64
41 -111 33 -83 -16 -108 -152 -39 -217 38 -36 107 -34 140 4 39 46 32 65 -23
69 -26 2 -48 9 -51 16 -3 9 16 12 72 12 l76 0 0 -80 c0 -62 -3 -80 -14 -80 -8
0 -17 7 -20 15 -5 14 -9 14 -35 0 -39 -20 -114 -19 -158 1 -106 51 -112 212
-9 275 46 28 142 26 187 -4z m799 1 c19 -13 35 -28 37 -34 7 -22 -28 -24 -55
-4 -58 43 -152 34 -152 -14 0 -33 15 -41 91 -56 37 -6 81 -20 98 -31 26 -16
31 -25 31 -58 0 -33 -5 -43 -31 -62 -35 -24 -107 -35 -164 -25 -38 7 -109 62
-99 77 10 17 40 9 63 -15 41 -43 159 -43 175 1 17 43 -13 62 -124 79 -49 8
-100 49 -100 81 0 25 27 63 54 73 11 5 48 9 82 9 48 1 68 -4 94 -21z m315 6
c34 -16 50 -38 39 -55 -8 -14 -34 -11 -40 5 -13 33 -105 46 -142 20 -49 -34
-18 -68 78 -84 143 -24 175 -111 63 -169 -37 -19 -134 -14 -173 10 -35 21 -60
46 -60 61 0 16 46 7 57 -12 24 -37 132 -49 171 -18 18 15 15 56 -5 67 -10 5
-45 14 -78 21 -102 21 -125 39 -125 101 0 22 8 34 33 49 40 25 134 27 182 4z
m-3805 -9 c0 -11 -12 -15 -50 -15 l-49 0 -3 -127 -3 -128 -27 -3 -28 -3 0 130
0 131 -55 0 c-42 0 -55 3 -55 15 0 13 22 15 135 15 113 0 135 -2 135 -15z
m300 0 c0 -12 -17 -15 -95 -15 l-95 0 0 -45 0 -45 75 0 c60 0 75 -3 75 -15 0
-12 -15 -15 -75 -15 l-75 0 0 -55 0 -55 100 0 c83 0 100 -3 100 -15 0 -13 -19
-15 -127 -13 l-128 3 -3 143 -3 142 126 0 c104 0 125 -2 125 -15z m460 -45 l0
-60 85 0 85 0 0 60 c0 57 1 60 25 60 l25 0 0 -145 0 -145 -25 0 c-24 0 -25 2
-25 70 l0 70 -85 0 -85 0 0 -70 0 -70 -30 0 -30 0 0 145 0 145 30 0 30 0 0
-60z m461 -47 l84 -108 3 108 c3 106 3 107 27 107 l25 0 0 -145 0 -145 -28 0
c-25 0 -42 17 -123 123 l-94 122 -3 -122 c-2 -115 -4 -123 -22 -123 -19 0 -20
7 -20 145 l0 145 33 0 c30 0 41 -9 118 -107z m649 -23 l0 -130 85 0 c69 0 85
-3 85 -15 0 -12 -19 -15 -115 -15 l-115 0 0 145 0 145 30 0 30 0 0 -130z
m1010 -16 l0 -145 -27 3 -28 3 -3 143 -3 142 31 0 30 0 0 -146z m330 131 c0
-12 -17 -15 -96 -15 l-95 0 3 -42 3 -43 78 -3 c56 -2 77 -6 74 -15 -2 -8 -32
-13 -81 -15 l-77 -3 3 -52 3 -52 102 -3 c85 -2 101 -5 96 -17 -4 -12 -29 -15
-129 -15 l-124 0 0 145 0 145 120 0 c100 0 120 -2 120 -15z m-3259 -515 l22
-30 19 30 c10 17 25 30 33 30 20 0 19 -8 -10 -55 -14 -22 -25 -55 -25 -72 0
-23 -5 -33 -15 -33 -9 0 -15 9 -15 25 0 27 -33 99 -50 110 -15 9 -12 25 5 25
8 0 24 -13 36 -30z m258 15 c47 -24 56 -83 19 -122 -29 -31 -72 -30 -103 2
-33 33 -32 70 4 106 34 33 41 35 80 14z m155 -7 c3 -13 6 -40 6 -61 0 -41 20
-58 45 -37 10 8 15 31 15 67 0 79 24 66 28 -15 3 -55 1 -62 -22 -77 -35 -23
-78 -16 -93 15 -18 35 -17 130 1 130 7 0 16 -10 20 -22z m697 -15 c2 -59 13
-88 36 -91 24 -4 33 20 33 86 0 31 4 42 15 42 12 0 15 -14 15 -64 0 -56 -3
-67 -22 -80 -33 -23 -74 -20 -92 6 -22 31 -22 138 -1 138 10 0 15 -11 16 -37z
m299 15 c0 -11 -7 -18 -20 -18 -18 0 -20 -7 -20 -60 0 -47 -3 -60 -15 -60 -10
0 -15 10 -15 28 0 63 -12 102 -31 102 -11 0 -19 7 -19 15 0 11 13 14 60 12 50
-1 60 -4 60 -19z m120 -38 c0 -45 4 -62 15 -66 27 -11 45 16 45 67 0 56 15 72
31 32 23 -61 -12 -133 -65 -133 -40 0 -58 23 -64 78 -5 59 1 82 23 82 12 0 15
-13 15 -60z m288 38 c9 -8 12 -23 8 -47 -9 -54 -9 -55 -1 -73 10 -25 -17 -23
-33 2 -7 11 -21 20 -32 20 -13 0 -20 -7 -20 -20 0 -11 -7 -20 -15 -20 -12 0
-15 15 -15 73 0 41 3 77 8 81 9 10 82 -2 100 -16z m209 -3 c-4 -9 -19 -15 -37
-15 -20 0 -30 -5 -30 -15 0 -10 10 -15 30 -15 20 0 30 -5 30 -15 0 -10 -10
-15 -30 -15 -42 0 -40 -28 2 -32 17 -2 33 -9 36 -15 3 -9 -12 -13 -52 -13
l-56 0 0 74 0 75 53 3 c61 4 61 3 54 -17z m296 -2 c17 -16 23 -78 9 -99 -11
-16 -48 -34 -71 -34 -34 0 -61 35 -61 79 0 71 70 101 123 54z m137 -39 c4 -46
9 -60 22 -62 22 -4 38 34 38 89 0 64 24 43 28 -24 2 -46 -1 -60 -18 -77 -23
-23 -72 -27 -89 -7 -16 21 -24 72 -17 112 11 54 30 37 36 -31z m288 43 c15
-12 16 -51 2 -78 -8 -13 -7 -25 0 -39 15 -28 -4 -26 -34 5 -32 32 -44 32 -48
-2 -6 -57 -23 -25 -26 49 -3 73 -2 77 20 81 28 5 69 -2 86 -16z m478 2 c13
-11 15 -24 10 -67 -4 -35 -2 -59 5 -68 23 -28 -8 -13 -34 16 -33 37 -45 38
-53 5 -8 -31 -23 -33 -26 -2 -5 61 -6 113 -3 123 5 15 81 10 101 -7z m134 -59
c0 -64 -3 -80 -15 -80 -12 0 -15 16 -15 80 0 64 3 80 15 80 12 0 15 -16 15
-80z m193 52 c25 -22 22 -80 -5 -109 -16 -17 -32 -23 -65 -23 l-43 0 0 74 c0
70 1 75 23 78 34 5 70 -3 90 -20z m210 22 c16 -16 -8 -34 -45 -34 -27 0 -38
-4 -35 -12 2 -7 18 -13 35 -13 21 0 32 -5 36 -17 3 -15 -2 -18 -30 -18 -25 0
-34 -4 -34 -16 0 -13 7 -15 35 -11 30 5 35 3 35 -14 0 -16 -7 -19 -52 -19
l-53 0 0 72 0 73 45 6 c25 3 48 7 51 7 3 1 8 -1 12 -4z m-3049 -26 c7 -12 7
-27 -2 -52 -10 -26 -10 -41 -2 -56 16 -30 -11 -26 -38 5 -29 33 -42 32 -42 -5
0 -22 -4 -28 -15 -24 -11 5 -15 24 -15 81 l0 74 51 -3 c36 -2 55 -8 63 -20z
m290 7 c-4 -9 -19 -15 -40 -15 -44 0 -47 -28 -4 -36 39 -8 40 -34 1 -34 -25 0
-31 -5 -36 -30 -11 -52 -25 -22 -25 56 l0 74 55 0 c44 0 53 -3 49 -15z m2034
3 c14 -14 15 -47 3 -66 -5 -8 -24 -17 -42 -21 -25 -5 -35 -13 -37 -29 -2 -12
-10 -22 -18 -22 -11 0 -14 15 -12 75 l3 75 45 0 c25 0 51 -5 58 -12z"/>
<path d="M1860 2564 l0 -86 71 4 c60 3 74 8 90 27 21 25 25 72 9 101 -13 24
-62 40 -121 40 l-49 0 0 -86z"/>
<path d="M4040 2589 c0 -14 -45 -166 -61 -206 -8 -23 -8 -23 71 -23 44 0 80 2
80 5 0 2 -13 46 -30 97 -16 51 -30 97 -30 104 0 6 -7 17 -15 24 -12 10 -15 10
-15 -1z"/>
<path d="M4650 2576 l0 -76 54 0 c116 0 167 52 113 116 -20 23 -33 27 -95 32
l-72 5 0 -77z"/>
<path d="M4658 2384 c-5 -4 -8 -40 -8 -81 l0 -73 70 0 c43 0 82 6 100 15 50
26 49 99 -1 125 -25 14 -151 25 -161 14z"/>
<path d="M3598 1841 c-31 -27 -33 -34 -33 -94 0 -55 4 -69 24 -91 50 -53 128
-41 162 25 63 124 -55 247 -153 160z"/>
<path d="M4240 1842 c-83 -83 -18 -242 88 -216 71 18 107 124 65 194 -33 57
-107 67 -153 22z"/>
<path d="M2236 1344 c-20 -20 -21 -58 -1 -74 19 -16 65 12 65 40 0 19 -25 50
-40 50 -5 0 -16 -7 -24 -16z"/>
<path d="M3777 1353 c-4 -3 -7 -15 -7 -25 0 -23 48 -25 57 -2 9 23 -32 45 -50
27z"/>
<path d="M4276 1341 c-27 -29 -17 -65 18 -69 44 -5 63 40 30 72 -20 21 -27 20
-48 -3z"/>
<path d="M4704 1345 c-8 -20 4 -35 27 -35 24 0 37 29 18 41 -21 13 -39 11 -45
-6z"/>
<path d="M5190 1336 c0 -21 5 -26 26 -26 21 0 25 4 22 23 -2 14 -11 23 -25 25
-19 3 -23 -1 -23 -22z"/>
<path d="M5510 1309 c0 -46 2 -50 22 -47 14 2 26 14 33 32 8 24 6 31 -14 47
-35 28 -41 24 -41 -32z"/>
<path d="M2667 1353 c-4 -3 -7 -15 -7 -25 0 -22 45 -26 53 -4 9 24 -28 47 -46
29z"/>
<path d="M5000 1336 c0 -20 5 -26 21 -26 15 0 20 5 17 22 -5 34 -38 37 -38 4z"/>
</g>
</svg>
